# xmcd CD database file
#
# Track frame offsets:
#	150
#	23461
#	46506
#	71696
#	92201
#	107426
#	121869
#	148172
#	181093
#	198911
#	216905
#	230485
#	252231
#	263685
#	279966
#	301322
#	312601
#	344264
#
# Disc length: 4786 seconds
#
# Revision: 0
# Processed by: cddbd v1.5.2PL0 Copyright (c) Steve Scherf et al.
# Submitted via: CDex 1.81
#
DISCID=f712b012
DTITLE=Various Artist - The Original Jazz Masters Series II
DYEAR=1900
DGENRE=Jazz
TTITLE0=Stephane Grapelli - Parisian Thoroughfare
TTITLE1=Thelonious Monk - My melancholy Baby
TTITLE2=Ben Webster - Gone with the wind
TTITLE3=Teddy Wilson - Body and Soul
TTITLE4=Count Basie - These foolish things
TTITLE5=Nat King Cole - I'll be the same
TTITLE6=Chris Barber and Dr. John - Basin Street Blues - Take me back to New Orleans
TTITLE7=Buddy Tate and Humphrey Littleton - The one for me
TTITLE8=Teddy Wilson - Honeysuckle Rose
TTITLE9=Duke Ellington - The feeling of Jazz
TTITLE10=Sidney Bechet - Summertime
TTITLE11=Dave Brubeck - Take Five
TTITLE12=Tommy Dorsey - Night and Day
TTITLE13=Ella Fitzgerald - Sophisticated Lady
TTITLE14=George Gershwin - Rhapsody in Blue
TTITLE15=Earl Hines - There will never be another you
TTITLE16=Theolonious Monk - April in Paris
TTITLE17=Django Reinhardt - Nuages
EXTD=
EXTT0=
EXTT1=
EXTT2=
EXTT3=
EXTT4=
EXTT5=
EXTT6=
EXTT7=
EXTT8=
EXTT9=
EXTT10=
EXTT11=
EXTT12=
EXTT13=
EXTT14=
EXTT15=
EXTT16=
EXTT17=
PLAYORDER=
